<?xml version="1.0" standalone="no"?><!DOCTYPE svg PUBLIC "-//W3C//DTD SVG 1.1//EN" "http://www.w3.org/Graphics/SVG/1.1/DTD/svg11.dtd"><svg t="1637069126701" class="icon" viewBox="0 0 1024 1024" version="1.1" xmlns="http://www.w3.org/2000/svg" p-id="34238" xmlns:xlink="http://www.w3.org/1999/xlink" width="16" height="16"><defs><style type="text/css"></style></defs><path d="M914.2 895.9h-776c-27.6 0-50-22.4-50-50s22.4-50 50-50h776c27.6 0 50 22.4 50 50s-22.4 50-50 50zM914.2 557.7h-776c-27.6 0-50-22.4-50-50s22.4-50 50-50h776c27.6 0 50 22.4 50 50 0 27.7-22.4 50-50 50zM622.2 219.6h-484c-27.6 0-50-22.4-50-50s22.4-50 50-50h484c27.6 0 50 22.4 50 50s-22.4 50-50 50z" p-id="34239" fill="#2c2c2c"></path></svg>