<?xml version="1.0" standalone="no"?><!DOCTYPE svg PUBLIC "-//W3C//DTD SVG 1.1//EN" "http://www.w3.org/Graphics/SVG/1.1/DTD/svg11.dtd"><svg t="1637824008410" class="icon" viewBox="0 0 1024 1024" version="1.1" xmlns="http://www.w3.org/2000/svg" p-id="2570" width="16" height="16" xmlns:xlink="http://www.w3.org/1999/xlink"><defs><style type="text/css"></style></defs><path d="M908.5 823.8c11.5 0 17.2 5.7 17.2 17.2s-5.7 17.2-17.2 17.2H115.2c-11.5 0-17.2-5.7-17.2-17.2s5.7-17.2 17.2-17.2c23 0 43.1-8.6 60.4-25.9 17.2-17.2 25.9-37.4 25.9-60.4l17.2-226.4c7.2-104.9 34.1-191.1 80.8-258.7 46.7-67.6 106-106.3 177.9-116.4V82.1c0-11.5 5.7-17.2 17.2-17.2h34.5c11.5 0 17.2 5.7 17.2 17.2V136c71.9 10.1 131.1 48.5 177.9 115.3s73.7 153.4 80.8 259.8l17.2 224.2c0 24.5 8.3 45.3 24.8 62.5 16.6 17.4 37.1 26 61.5 26z m-84 0c-24.4-21.6-36.6-50.3-36.6-86.2l-17.2-222c-7.2-104.9-34.1-188.9-80.8-252.2-46.7-63.2-106-94.9-177.9-94.9s-131.1 31.6-177.9 94.9c-46.7 63.3-73.7 147.4-80.8 252.2l-17.2 224.2c0 34.5-12.2 62.5-36.6 84.1l625-0.1z m-312.6 138c-35.9 0-68.3-12.9-97-38.8-7.2-7.2-7.2-15.8 0-25.9 7.2-8.6 15.1-8.6 23.7 0 20.1 20.2 44.6 30.2 73.3 30.2 28.7 0 53.2-10 73.3-30.2 8.6-8.6 16.5-8.6 23.7 0 7.2 10.1 7.2 18.7 0 25.9-25.9 25.8-58.2 38.8-97 38.8z" p-id="2571" fill="#ffffff"></path></svg>