<?xml version="1.0" standalone="no"?><!DOCTYPE svg PUBLIC "-//W3C//DTD SVG 1.1//EN" "http://www.w3.org/Graphics/SVG/1.1/DTD/svg11.dtd"><svg t="1638189412213" class="icon" viewBox="0 0 1024 1024" version="1.1" xmlns="http://www.w3.org/2000/svg" p-id="30382" xmlns:xlink="http://www.w3.org/1999/xlink" width="32" height="32"><defs><style type="text/css"></style></defs><path d="M256.639824 379.841485a87.740093 87.740093 0 1 0 87.740093-77.430632 82.841271 82.841271 0 0 0-87.740093 77.430632z" fill="#ffffff" p-id="30383"></path><path d="M589.759709 379.841485a87.740093 87.740093 0 1 0 87.740093-77.430632 82.841271 82.841271 0 0 0-87.740093 77.430632z" fill="#ffffff" p-id="30384"></path><path d="M1023.268885 339.846626a41.384077 41.384077 0 0 0-81.671403 0V582.74045a145.356087 145.356087 0 0 1-153.106462 135.558443H507.064672l-104.995644 73.116744-119.69211 82.987505V718.59136h-46.794717a171.897465 171.897465 0 0 1-35.388504-3.655837 140.384149 140.384149 0 0 1-117.717958-131.610139V196.830275A137.971296 137.971296 0 0 1 183.230613 69.38779l1.316101-0.584934h486.226348a34.291753 34.291753 0 1 0 0-68.437272h-504.505534a45.624848 45.624848 0 0 0-10.748161 1.462335V1.316101A233.973581 233.973581 0 0 0 44.235682 76.333881a191.346519 191.346519 0 0 0-43.870046 120.861978v385.910175a218.545948 218.545948 0 0 0 199.901178 206.042984v234.850982l335.313388-232.511246h252.472117a223.371653 223.371653 0 0 0 235.362799-208.38272V340.21221z" fill="#ffffff" p-id="30385"></path></svg>