<?xml version="1.0" standalone="no"?><!DOCTYPE svg PUBLIC "-//W3C//DTD SVG 1.1//EN" "http://www.w3.org/Graphics/SVG/1.1/DTD/svg11.dtd"><svg t="1638275852499" class="icon" viewBox="0 0 1024 1024" version="1.1" xmlns="http://www.w3.org/2000/svg" p-id="44813" xmlns:xlink="http://www.w3.org/1999/xlink" width="32" height="32"><defs><style type="text/css"></style></defs><path d="M512 512m-512 0a512 512 0 1 0 1024 0 512 512 0 1 0-1024 0Z" fill="#FBD971" p-id="44814"></path><path d="M780.190476 633.904762c0 148.114286-120.07619 268.190476-268.190476 268.190476s-268.190476-120.07619-268.190476-268.190476h536.380952z" fill="#C03A2B" p-id="44815"></path><path d="M414.47619 633.904762h97.52381v146.285714h-97.52381zM512 633.904762h97.52381v97.523809h-97.52381z" fill="#ECF0F1" p-id="44816"></path><path d="M731.428571 341.333333m-146.285714 0a146.285714 146.285714 0 1 0 292.571429 0 146.285714 146.285714 0 1 0-292.571429 0Z" fill="#FFFFFF" p-id="44817"></path><path d="M731.428571 341.333333m-73.142857 0a73.142857 73.142857 0 1 0 146.285715 0 73.142857 73.142857 0 1 0-146.285715 0Z" fill="#AF8066" p-id="44818"></path><path d="M759.466667 63.878095a512.585143 512.585143 0 0 0-50.054096-24.33219L456.289524 227.303619a158.061714 158.061714 0 0 0-7.92381-13.921524c-48.249905-75.654095-105.008762-29.379048-180.687238 18.870857-75.654095 48.249905-141.55581 80.213333-93.305905 155.867429 4.412952 6.92419 9.411048 13.238857 14.628572 19.260952L2.121143 554.22781c1.560381 18.992762 3.949714 37.741714 7.533714 56.100571l217.429333-170.837333a162.279619 162.279619 0 0 0 171.641905-1.731048 162.425905 162.425905 0 0 0 73.216-161.255619L759.466667 63.878095z" fill="#38454F" p-id="44819"></path></svg>